# xmcd CD database file
#
# Track frame offsets:
#	150
#	33438
#	58130
#	86103
#	107952
#	136756
#	155723
#	181159
#	206587
#	232758
#
# Disc length: 3403 seconds
#
# Revision: 0
# Processed by: cddbd v1.5.2PL0 Copyright (c) Steve Scherf et al.
# Submitted via: CDex 1.51
#
DISCID=830d490a
DTITLE=Montellanico Ada - Danza di una ninfa
DYEAR=2005
DGENRE=Jazz
TTITLE0=Mi sono innamorato
TTITLE1=Da quando
TTITLE2=Mia cara amica
TTITLE3=Quasi sera
TTITLE4=Danza di una ninfa
TTITLE5=Che cos'è?
TTITLE6=Ho capito che ti amo
TTITLE7=Il tempo passò
TTITLE8=In qualche parte del mondo
TTITLE9=O me
EXTD=YEAR: 2005
EXTT0=
EXTT1=
EXTT2=
EXTT3=
EXTT4=
EXTT5=
EXTT6=
EXTT7=
EXTT8=
EXTT9=
PLAYORDER=
